<?xml version="1.0" standalone="no"?>
<!DOCTYPE svg PUBLIC "-//W3C//DTD SVG 20010904//EN"
 "http://www.w3.org/TR/2001/REC-SVG-20010904/DTD/svg10.dtd">
<svg version="1.0" xmlns="http://www.w3.org/2000/svg"
 width="903.000000pt" height="903.000000pt" viewBox="0 0 903.000000 903.000000"
 preserveAspectRatio="xMidYMid meet">
<metadata>
Created by potrace 1.11, written by Peter Selinger 2001-2013
</metadata>
<g transform="translate(0.000000,903.000000) scale(0.100000,-0.100000)"
fill="#000000" stroke="none">
<path d="M4307 8808 c-251 -19 -657 -112 -862 -198 -11 -5 -72 -30 -135 -56
-594 -245 -1226 -731 -1719 -1323 -543 -652 -937 -1408 -1016 -1951 -12 -77
-7 -212 10 -295 50 -238 187 -448 440 -671 l69 -61 -26 -40 c-66 -100 -114
-232 -144 -394 -23 -127 -24 -465 -1 -595 62 -347 275 -648 604 -849 68 -41
75 -55 88 -160 32 -271 139 -570 281 -786 182 -277 429 -454 869 -624 358
-138 326 -123 600 -285 174 -103 411 -218 532 -258 323 -108 777 -128 1143
-50 233 49 429 134 752 326 238 142 246 145 478 231 210 78 424 178 560 263
99 61 322 276 388 375 89 131 189 355 236 523 21 75 55 252 62 325 7 71 16 82
149 165 220 139 406 375 489 620 62 187 88 446 65 655 -21 192 -79 393 -139
479 l-31 46 133 133 c138 137 213 235 274 358 149 302 132 639 -58 1119 -179
452 -476 941 -858 1410 -82 101 -491 521 -608 623 -185 164 -540 412 -767 536
-460 251 -985 405 -1405 411 -74 1 -187 3 -250 3 -63 1 -154 -1 -203 -5z"/>
</g>
</svg>
